HIERARCHY
ROOT Hip
{
	OFFSET 0 1.131 0.0052
	CHANNELS 6 Xposition Yposition Zposition Xrotation Yrotation Zrotation
	JOINT Abdomen
	{
		OFFSET 0 -0.047353 -0.05
		CHANNELS 3 Xrotation Zrotation Yrotation
		JOINT Chest
		{
			OFFSET 0 0.132153 0.007439
			CHANNELS 3 Xrotation Zrotation Yrotation
			JOINT Neck
			{
				OFFSET 0 0.3078 0.006161
				CHANNELS 3 Xrotation Zrotation Yrotation
				JOINT Head_comp
				{
					OFFSET 0 0.0884 0.013
					CHANNELS 3 Xrotation Yrotation Zrotation
					End Site
					{
						OFFSET -0 0.156 0.0624
					}
				}
			}
			JOINT Left_Collar
			{
				OFFSET 0.02282 0.250342 0.017193
				CHANNELS 2 Yrotation Zrotation
				JOINT Left_Shoulder
				{
					OFFSET 0.15421 0 0
					CHANNELS 3 Xrotation Yrotation Zrotation
					JOINT Left_Forearm
					{
						OFFSET 0.265212 0 0
						CHANNELS 2 Yrotation Xrotation
						JOINT Left_Hand
						{
							OFFSET 0.27571 0 0
							CHANNELS 2 Zrotation Yrotation
							JOINT L1ProxPhalanx
							{
								OFFSET 0.014142 0.001733 0.014142
								CHANNELS 3 Yrotation Zrotation Xrotation
								JOINT L1MidPhalanx
								{
									OFFSET 0.04 0 0
									CHANNELS 1 Zrotation
									JOINT L1DistPhalanx
									{
										OFFSET 0.035 0 0
										CHANNELS 1 Zrotation
										End Site
										{
											OFFSET 0.029 -0 -0
										}
									}
								}
							}
							JOINT L2ProxPhalanx
							{
								OFFSET 0.0821037 0.001578 0.0219996
								CHANNELS 2 Yrotation Zrotation
								JOINT L2MidPhalanx
								{
									OFFSET 0.04 0 0
									CHANNELS 1 Zrotation
									JOINT L2DistPhalanx
									{
										OFFSET 0.028 0 0
										CHANNELS 1 Zrotation
										End Site
										{
											OFFSET 0.02 -0 -0
										}
									}
								}
							}
							JOINT L3ProxPhalanx
							{
								OFFSET 0.083 0 0
								CHANNELS 2 Yrotation Zrotation
								JOINT L3MidPhalanx
								{
									OFFSET 0.053 0 0
									CHANNELS 1 Zrotation
									JOINT L3DistPhalanx
									{
										OFFSET 0.03 0 0
										CHANNELS 1 Zrotation
										End Site
										{
											OFFSET 0.023 -0 -0
										}
									}
								}
							}
							JOINT L4ProxPhalanx
							{
								OFFSET 0.077274 -0.000761 -0.0207055
								CHANNELS 2 Yrotation Zrotation
								JOINT L4MidPhalanx
								{
									OFFSET 0.05 0 0
									CHANNELS 1 Zrotation
									JOINT L4DistPhalanx
									{
										OFFSET 0.03 0 0
										CHANNELS 1 Zrotation
										End Site
										{
											OFFSET 0.023 -0 -0
										}
									}
								}
							}
							JOINT L5ProxPhalanx
							{
								OFFSET 0.0675499 -0.001644 -0.039
								CHANNELS 2 Yrotation Zrotation
								JOINT L5MidPhalanx
								{
									OFFSET 0.04 0 0
									CHANNELS 1 Zrotation
									JOINT L5DistPhalanx
									{
										OFFSET 0.021 0 0
										CHANNELS 1 Zrotation
										End Site
										{
											OFFSET 0.022 -0 -0
										}
									}
								}
							}
						}
					}
				}
			}
			JOINT Right_Collar
			{
				OFFSET -0.02282 0.250342 0.017193
				CHANNELS 2 Yrotation Zrotation
				JOINT Right_Shoulder
				{
					OFFSET -0.15421 0 0
					CHANNELS 3 Xrotation Yrotation Zrotation
					JOINT Right_Forearm
					{
						OFFSET -0.265212 0 0
						CHANNELS 2 Yrotation Xrotation
						JOINT Right_Hand
						{
							OFFSET -0.27571 3e-006 0
							CHANNELS 2 Zrotation Yrotation
							JOINT R1ProxPhalanx
							{
								OFFSET -0.014142 0.001733 0.014142
								CHANNELS 3 Yrotation Zrotation Xrotation
								JOINT R1MidPhalanx
								{
									OFFSET -0.04 0 0
									CHANNELS 1 Zrotation
									JOINT R1DistPhalanx
									{
										OFFSET -0.035 0 0
										CHANNELS 1 Zrotation
										End Site
										{
											OFFSET -0.029 -0 -0
										}
									}
								}
							}
							JOINT R2ProxPhalanx
							{
								OFFSET -0.0821037 0.001578 0.0219996
								CHANNELS 2 Yrotation Zrotation
								JOINT R2MidPhalanx
								{
									OFFSET -0.04 0 0
									CHANNELS 1 Zrotation
									JOINT R2DistPhalanx
									{
										OFFSET -0.028 0 0
										CHANNELS 1 Zrotation
										End Site
										{
											OFFSET -0.02 -0 -0
										}
									}
								}
							}
							JOINT R3ProxPhalanx
							{
								OFFSET -0.083 0 0
								CHANNELS 2 Yrotation Zrotation
								JOINT R3MidPhalanx
								{
									OFFSET -0.053 0 0
									CHANNELS 1 Zrotation
									JOINT R3DistPhalanx
									{
										OFFSET -0.03 0 0
										CHANNELS 1 Zrotation
										End Site
										{
											OFFSET -0.023 -0 -0
										}
									}
								}
							}
							JOINT R4ProxPhalanx
							{
								OFFSET -0.077274 -0.000761 -0.0207055
								CHANNELS 2 Yrotation Zrotation
								JOINT R4MidPhalanx
								{
									OFFSET -0.05 0 0
									CHANNELS 1 Zrotation
									JOINT R4DistPhalanx
									{
										OFFSET -0.03 0 0
										CHANNELS 1 Zrotation
										End Site
										{
											OFFSET -0.023 -0 -0
										}
									}
								}
							}
							JOINT R5ProxPhalanx
							{
								OFFSET -0.0675499 -0.001644 -0.039
								CHANNELS 2 Yrotation Zrotation
								JOINT R5MidPhalanx
								{
									OFFSET -0.04 0 0
									CHANNELS 1 Zrotation
									JOINT R5DistPhalanx
									{
										OFFSET -0.021 0 0
										CHANNELS 1 Zrotation
										End Site
										{
											OFFSET -0.022 -0 -0
										}
									}
								}
							}
						}
					}
				}
			}
		}
	}
	JOINT Left_Thigh
	{
		OFFSET 0.1118 -0.1612 -0.0442
		CHANNELS 3 Xrotation Zrotation Yrotation
		JOINT Left_Shin
		{
			OFFSET 0 -0.477856 0
			CHANNELS 1 Xrotation
			JOINT Left_Foot
			{
				OFFSET 0 -0.431952 0
				CHANNELS 2 Xrotation Zrotation
				JOINT Left_Toe
				{
					OFFSET 0 -0.0442 0.119
					CHANNELS 1 Xrotation
					End Site
					{
						OFFSET -0 -0 0.07
					}
				}
			}
		}
	}
	JOINT Right_Thigh
	{
		OFFSET -0.1118 -0.1612 -0.0442
		CHANNELS 3 Xrotation Zrotation Yrotation
		JOINT Right_Shin
		{
			OFFSET 0 -0.477856 0
			CHANNELS 1 Xrotation
			JOINT Right_Foot
			{
				OFFSET 0 -0.431952 0
				CHANNELS 2 Xrotation Zrotation
				JOINT Right_Toe
				{
					OFFSET 0 -0.0442 0.119
					CHANNELS 1 Xrotation
					End Site
					{
						OFFSET -0 -0 0.07
					}
				}
			}
		}
	}
}
MOTION
Frames: 13
Frame Time: 0.009975
-0.101351 -0.0603097 0.0606505 -2.60752e-013 1.21601e-007 -5.10821e-006 0 0 0 0 0 0 0 0 0 0 0 0 0 0 -0 0 -0 0 0 0 0 -36.7832 -29.9624 77.4898 -4.76427 -12.2444 -6.63439 -16.4575 -31.3511 -13.5114 -0.647911 -24.507 -18.2419 -18.0941 9.02909 -22.0218 -38.2405 -19.3412 17.3445 -18.4185 -40.523 -37.4487 0 0 -0 0 -0 0 0 0 0 37.9386 28.008 73.698 26.2405 28.4472 13.118 18.2167 29.0248 19.6359 0 22.4358 32.6146 28.1246 -8.63175 30.7051 32.2053 23.7634 -7.83088 26.7354 35.1526 30.0193 1.35227 -0.658014 -0.0155328 0.0240216 -1.3762 0.658202 0 1.36367 -0.65801 -0.0156638 0 -1.36358 0.658202 0 
-0.101351 -0.0603097 0.0606505 -2.60752e-013 1.21601e-007 -5.10821e-006 0 0 0 0 0 0 0 0 0 0 0 0 0 0 -0 0 -0 0 0 0 0 -36.7832 -29.9624 77.4898 -4.76427 -12.2444 -6.63439 -16.4575 -31.3511 -13.5114 -0.647911 -24.507 -18.2419 -18.0941 9.02909 -22.0218 -38.2405 -19.3412 17.3445 -18.4185 -40.523 -37.4487 0 0 -0 0 -0 0 0 0 0 37.9386 28.008 73.698 26.2405 28.4472 13.118 18.2167 29.0248 19.6359 0 22.4358 32.6146 28.1246 -8.63175 30.7051 32.2053 23.7634 -7.83088 26.7354 35.1526 30.0193 1.35227 -0.658014 -0.0155328 0.0240216 -1.3762 0.658202 0 1.36367 -0.65801 -0.0156638 0 -1.36358 0.658202 0 
-0.107364 -0.0600114 0.0429196 2.68727e-012 2.20123e-008 -5.08379e-006 0 -0 0 0 -0 0 0 -0 0 -0.710223 0.310144 -9.65958e-006 4.16584 -17.9609 -7.47195 -24.4367 -41.2314 -58.0446 5.85155 12.9265 1.39795 -78.4293 23.4653 80.8121 -28.9412 -23.8576 1.0851 0.651574 -15.5417 -2.61807 -2.14507 -4.38443 -8.59696 0.172756 -5.02853 -20.2292 11.2813 1.87688 -4.97477 -52.0245 51.0169 15.4098 3.45593 38.313 -6.81771 20.5705 36.6602 67.4239 8.34138 -8.12119 -6.44233 73.6103 -8.08541 81.2992 16.9769 11.6637 -4.37505 -0.633633 11.5681 3.74332 -4.98087 4.55932 -0.807126 3.30789 -1.14392 20.9308 -14.2461 -11.6113 -1.25027 52.2747 -60.1205 -8.40208 0.235495 -0.279377 -0.0011512 0.0239015 -0.259394 0.279385 0 0.246843 -0.279377 -0.00120667 0 -0.24684 0.279385 0 
-0.10719 -0.0600095 0.0422544 2.70078e-012 2.21229e-008 -5.10934e-006 0 -0 0 0 -0 0 0 -0 0 -0.712077 0.308057 -4.12218e-010 4.1866 -18.0511 -6.93823 -24.3395 -39.1635 -59.153 5.87837 12.9915 1.40495 -78.5636 23.7045 80.8713 -28.9108 -23.877 1.09532 0.805579 -15.4188 -2.55585 -2.15564 -4.24567 -8.43915 0.264076 -5.06122 -20.1701 11.539 1.97676 -5.02879 -52.1649 51.4442 15.5878 3.47264 38.5054 -6.31693 20.5889 33.9706 68.5241 8.3783 -8.16196 -6.47465 73.707 -8.2491 81.3331 16.8863 11.6218 -4.4014 -0.787416 11.4252 3.68675 -5.00542 4.42152 -1.01219 3.23406 -1.14213 20.8751 -14.5187 -11.7601 -1.22687 52.4167 -60.5934 -8.54481 0.193544 -0.290288 -0.000980578 0.0240216 -0.217563 0.290295 0 0.204949 -0.290288 -0.00103836 1.69474e-006 -0.204948 0.290295 0 
-0.10716 -0.0600096 0.042248 3.6546e-012 1.82473e-008 -5.10936e-006 0 -0 0 0 -0 0 0 -0 0 -0.712057 0.307601 -2.86798e-013 4.1866 -18.0511 -6.93437 -24.3377 -39.1498 -59.1591 5.87837 12.9915 1.40495 -78.5636 23.7045 80.8713 -28.9108 -23.877 1.09532 0.805579 -15.4188 -2.55585 -2.15564 -4.24567 -8.43915 0.264076 -5.06122 -20.1701 11.539 1.97676 -5.02879 -52.1649 51.4442 15.5878 3.47264 38.5054 -6.31329 20.5881 33.9523 68.5299 8.3783 -8.16196 -6.47465 73.707 -8.2491 81.3331 16.8863 11.6218 -4.4014 -0.787416 11.4252 3.68675 -5.00542 4.42152 -1.01219 3.23406 -1.14213 20.8751 -14.5187 -11.7601 -1.22687 52.4167 -60.5934 -8.54481 0.193145 -0.292232 -0.000985137 0.0240216 -0.217164 0.292239 0 0.20455 -0.292232 -0.00104331 1.70755e-006 -0.204549 0.292239 0 
-0.107159 -0.0600096 0.042248 -1.70542e-012 1.82408e-008 -5.10936e-006 0 -0 0 0 -0 0 0 -0 0 -0.712057 0.30758 1.30454e-016 4.1866 -18.0511 -6.93437 -24.3377 -39.1498 -59.1591 5.87837 12.9915 1.40495 -78.5636 23.7045 80.8713 -28.9108 -23.877 1.09532 0.805579 -15.4188 -2.55585 -2.15564 -4.24567 -8.43915 0.264076 -5.06122 -20.1701 11.539 1.97676 -5.02879 -52.1649 51.4442 15.5878 3.47264 38.5054 -6.31329 20.5881 33.9523 68.5299 8.3783 -8.16196 -6.47465 73.707 -8.2491 81.3331 16.8863 11.6218 -4.4014 -0.787416 11.4252 3.68675 -5.00542 4.42152 -1.01219 3.23406 -1.14213 20.8751 -14.5187 -11.7601 -1.22687 52.4167 -60.5934 -8.54481 0.193144 -0.292267 -0.000985247 0.0240216 -0.217163 0.292274 0 0.204549 -0.292267 -0.00104342 2.13443e-008 -0.204546 0.292273 0 
-0.107159 -0.0600096 0.042248 3.19549e-012 1.82407e-008 -5.10936e-006 0 -0 0 0 -0 0 0 -0 0 -0.712057 0.30758 -0 4.1866 -18.0511 -6.93437 -24.3377 -39.1498 -59.1591 5.87837 12.9915 1.40495 -78.5636 23.7045 80.8713 -28.9108 -23.877 1.09532 0.805579 -15.4188 -2.55585 -2.15564 -4.24567 -8.43915 0.264076 -5.06122 -20.1701 11.539 1.97676 -5.02879 -52.1649 51.4442 15.5878 3.47264 38.5054 -6.31329 20.5881 33.9523 68.5299 8.3783 -8.16196 -6.47465 73.707 -8.2491 81.3331 16.8863 11.6218 -4.4014 -0.787416 11.4252 3.68675 -5.00542 4.42152 -1.01219 3.23406 -1.14213 20.8751 -14.5187 -11.7601 -1.22687 52.4167 -60.5934 -8.54481 0.193144 -0.292267 -0.000985247 0.0240216 -0.217163 0.292274 0 0.204549 -0.292267 -0.00104342 0 -0.204546 0.292274 0 
-0.107159 -0.0600096 0.042248 -1.48571e-012 1.82407e-008 -5.10936e-006 0 -0 0 0 -0 0 0 -0 0 -0.712057 0.307579 -0 4.1866 -18.0511 -6.93437 -24.3377 -39.1498 -59.1591 5.87837 12.9915 1.40495 -78.5636 23.7045 80.8713 -28.9108 -23.877 1.09532 0.805579 -15.4188 -2.55585 -2.15564 -4.24567 -8.43915 0.264076 -5.06122 -20.1701 11.539 1.97676 -5.02879 -52.1649 51.4442 15.5878 3.47264 38.5054 -6.31329 20.5881 33.9523 68.5299 8.3783 -8.16196 -6.47465 73.707 -8.2491 81.3331 16.8863 11.6218 -4.4014 -0.787416 11.4252 3.68675 -5.00542 4.42152 -1.01219 3.23406 -1.14213 20.8751 -14.5187 -11.7601 -1.22687 52.4167 -60.5934 -8.54481 0.193144 -0.292267 -0.000985248 0.0240216 -0.217163 0.292274 0 0.204549 -0.292267 -0.00104342 1.67767e-006 -0.204548 0.292274 0 
-0.107159 -0.0600096 0.042248 2.44175e-012 1.82407e-008 -5.10935e-006 0 -0 0 0 -0 0 0 -0 0 -0.712057 0.307579 -0 4.1866 -18.0511 -6.93437 -24.3377 -39.1498 -59.1591 5.87837 12.9915 1.40495 -78.5636 23.7045 80.8713 -28.9108 -23.877 1.09532 0.805579 -15.4188 -2.55585 -2.15564 -4.24567 -8.43915 0.264076 -5.06122 -20.1701 11.539 1.97676 -5.02879 -52.1649 51.4442 15.5878 3.47264 38.5054 -6.31329 20.5881 33.9523 68.5299 8.3783 -8.16196 -6.47465 73.707 -8.2491 81.3331 16.8863 11.6218 -4.4014 -0.787416 11.4252 3.68675 -5.00542 4.42152 -1.01219 3.23406 -1.14213 20.8751 -14.5187 -11.7601 -1.22687 52.4167 -60.5934 -8.54481 0.193144 -0.292267 -0.000985248 0.0240216 -0.217163 0.292274 0 0.204549 -0.292267 -0.00104342 3.41509e-008 -0.204548 0.292274 0 
-0.107159 -0.0600096 0.042248 5.21977e-012 1.82407e-008 -5.10936e-006 0 -0 0 0 -0 0 0 -0 0 -0.712057 0.307579 -0 4.1866 -18.0511 -6.93437 -24.3377 -39.1498 -59.1591 5.87837 12.9915 1.40495 -78.5636 23.7045 80.8713 -28.9108 -23.877 1.09532 0.805579 -15.4188 -2.55585 -2.15564 -4.24567 -8.43915 0.264076 -5.06122 -20.1701 11.539 1.97676 -5.02879 -52.1649 51.4442 15.5878 3.47264 38.5054 -6.31329 20.5881 33.9523 68.5299 8.3783 -8.16196 -6.47465 73.707 -8.2491 81.3331 16.8863 11.6218 -4.4014 -0.787416 11.4252 3.68675 -5.00542 4.42152 -1.01219 3.23406 -1.14213 20.8751 -14.5187 -11.7601 -1.22687 52.4167 -60.5934 -8.54481 0.193144 -0.292267 -0.000985247 0.0240216 -0.217163 0.292274 0 0.204549 -0.292267 -0.00104342 1.66913e-006 -0.204546 0.292274 0 
-0.107159 -0.0600096 0.042248 2.47649e-012 1.82407e-008 -5.10935e-006 0 -0 0 0 -0 0 0 -0 0 -0.712057 0.307579 -0 4.1866 -18.0511 -6.93437 -24.3377 -39.1498 -59.1591 5.87837 12.9915 1.40495 -78.5636 23.7045 80.8713 -28.9108 -23.877 1.09532 0.805579 -15.4188 -2.55585 -2.15564 -4.24567 -8.43915 0.264076 -5.06122 -20.1701 11.539 1.97676 -5.02879 -52.1649 51.4442 15.5878 3.47264 38.5054 -6.31329 20.5881 33.9523 68.5299 8.3783 -8.16196 -6.47465 73.707 -8.2491 81.3331 16.8863 11.6218 -4.4014 -0.787416 11.4252 3.68675 -5.00542 4.42152 -1.01219 3.23406 -1.14213 20.8751 -14.5187 -11.7601 -1.22687 52.4167 -60.5934 -8.54481 0.193144 -0.292267 -0.000985248 0.0240216 -0.217163 0.292274 0 0.204549 -0.292267 -0.00104342 1.70755e-006 -0.204548 0.292274 0 
-0.107159 -0.0600096 0.042248 1.67826e-012 1.82407e-008 -5.10935e-006 0 -0 0 0 -0 0 0 -0 0 -0.712057 0.307579 -0 4.1866 -18.0511 -6.93437 -24.3377 -39.1498 -59.1591 5.87837 12.9915 1.40495 -78.5636 23.7045 80.8713 -28.9108 -23.877 1.09532 0.805579 -15.4188 -2.55585 -2.15564 -4.24567 -8.43915 0.264076 -5.06122 -20.1701 11.539 1.97676 -5.02879 -52.1649 51.4442 15.5878 3.47264 38.5054 -6.31329 20.5881 33.9523 68.5299 8.3783 -8.16196 -6.47465 73.707 -8.2491 81.3331 16.8863 11.6218 -4.4014 -0.787416 11.4252 3.68675 -5.00542 4.42152 -1.01219 3.23406 -1.14213 20.8751 -14.5187 -11.7601 -1.22687 52.4167 -60.5934 -8.54481 0.193144 -0.292267 -0.000985248 0.0240216 -0.217163 0.292274 0 0.204549 -0.292267 -0.00104342 1.70755e-006 -0.204548 0.292274 0 
-0.107159 -0.0600096 0.042248 4.11676e-013 1.82407e-008 -5.10936e-006 0 -0 0 0 -0 0 0 -0 0 -0.712057 0.307579 -0 4.1866 -18.0511 -6.93437 -24.3377 -39.1498 -59.1591 5.87837 12.9915 1.40495 -78.5636 23.7045 80.8713 -28.9108 -23.877 1.09532 0.805579 -15.4188 -2.55585 -2.15564 -4.24567 -8.43915 0.264076 -5.06122 -20.1701 11.539 1.97676 -5.02879 -52.1649 51.4442 15.5878 3.47264 38.5054 -6.31329 20.5881 33.9523 68.5299 8.3783 -8.16196 -6.47465 73.707 -8.2491 81.3331 16.8863 11.6218 -4.4014 -0.787416 11.4252 3.68675 -5.00542 4.42152 -1.01219 3.23406 -1.14213 20.8751 -14.5187 -11.7601 -1.22687 52.4167 -60.5934 -8.54481 0.193144 -0.292267 -0.000985248 0.0240216 -0.217163 0.292274 0 0.204549 -0.292267 -0.00104342 2.41484e-006 -0.204548 0.292274 0 
